Patient4_TMGait_0pt6_01_right_18_EMG.mot
version=1
nRows=33
nColumns=33
inDegrees=no
endheader
time	1LAddLong	2LGlutMax	3LGlutMed	4LIliopsoas	5LSemiMemb	6LBicFemLong	7LRecFem	8LVastMed	9LVastLat	10LGasMed	11LTibAnt	12lTibPost	13LPeroneusLong	14LSol	15LExtDigLong	16LFlexDigLong	17RAddLong	18RGlutMax	19RGlutMed	20RIliopsoas	21RSemiMemb	22RBicFemLong	23RRecFem	24RVastMed	25RVastLat	26RGasMed	27RTibAnt	28RTibPost	29RPeroneusLong	30RSol	31RExtDigLong	32RFlexDigLong
21.3	-0.002747	-0.14084	-0.036163	0.005188	0.002594	-0.003052	0.11368	0.026093	-0.041351	0.082092	-0.009918	-0.088348	-0.020294	-0.041046	0.008698	-0.030823	-0.084991	-0.52658	0.66971	0.04425	0.08728	0.054779	0.2713	-0.048676	-0.011139	-0.011292	-0.02243	-0.009918	0.21912	0.058136	-0.000458	0.003052
21.301	0.003052	-0.12573	-0.042419	0.005646	0.022583	-0.001221	0.18265	0.010986	0.049591	0.090485	-0.02594	-0.034027	-0.027161	-0.005341	0.013428	-0.024719	-0.029755	-0.45883	0.73364	0.058136	0.064087	0.065613	0.27069	0.00061	-0.001831	-0.008545	-0.072174	-0.007782	-0.016937	-0.052032	-0.000916	0.005341
21.302	0.002747	-0.14145	-0.10513	0.000305	0.00824	0.014343	0.23331	0.00885	0.073547	0.21286	-0.037994	-0.023651	-0.029144	0.11795	0.005798	-0.014343	0.025024	-0.46265	0.40756	0.10895	0.055237	0.066071	0.25589	-0.003815	-0.000916	-0.001068	0.14481	-0.008698	-0.33585	-0.14267	0.000305	0.008392
21.303	-0.003052	-0.13306	-0.080566	0.000153	-0.006409	-0.024261	0.289	0.00473	-0.022888	0.30289	-0.022736	-0.051117	-0.054932	0.15579	0.020752	-0.027161	0.052185	-0.43198	0.42847	0.10742	0.061188	0.086365	0.17441	-0.06424	-0.010681	0.003815	0.07843	-0.008698	-0.68253	-0.080414	-0.000458	0.008087
21.304	-0.001984	-0.15305	-0.006561	0.029297	-0.005493	-0.069733	0.26993	0.008087	0.10117	0.11826	0.046844	-0.069885	-0.096436	0.1561	0.059509	-0.025024	0.061188	-0.48447	0.46097	0.072937	0.069275	0.089264	0.13977	-0.070038	-0.038605	-0.009308	0.26581	-0.002747	-0.34836	-0.025177	-0.002136	0.005035
21.305	-0.000153	-0.14877	0.054626	0.005646	-0.025024	0.005188	0.2269	0.009766	0.10849	-0.086975	0.029907	-0.061188	-0.093994	0.15274	0.088501	-0.016632	0.072174	-0.49469	0.29724	0.060425	0.067596	0.054626	0.11704	-0.10971	-0.0354	-0.014648	0.5423	-0.002136	-0.21378	0.020447	-0.002747	0.003967
21.306	0.002594	-0.13046	0.11444	-0.007172	-0.066681	0.078278	0.22308	0.007324	-0.069427	-0.29633	-0.040894	-0.04715	0.036316	0.26489	0.066681	-0.022888	0.056305	-0.4805	0.62347	0.000305	0.065918	0.011444	0.10117	-0.11459	-0.037231	-0.012665	0.83725	0.00351	-0.091705	-0.066376	-0.000763	0.002289
21.307	0.00473	-0.12528	0.060883	-0.008392	-0.002594	0.020905	0.22629	0.004272	-0.10757	-0.24689	0.031891	-0.050049	0.16007	-0.043182	-0.003052	-0.010681	0.042572	-0.45441	0.62103	0.010681	0.081482	-0.037384	0.05249	-0.076141	-0.020599	-0.011292	0.45853	-0.002747	-0.11169	-0.10574	-0.007935	-0.000458
21.308	0.010223	-0.12711	0.037384	0.005341	0.029755	-0.053711	0.23544	0.001678	-0.027771	-0.1889	0.041504	-0.044708	0.21698	0.04715	-0.01297	-0.024414	0.036011	-0.45273	0.53619	0.032654	0.10605	-0.081329	0.080414	-0.10208	-0.026398	-0.007782	-0.34149	-0.000458	-0.16785	-0.12207	-0.006409	0.009308
21.309	-0.001678	-0.12116	0.11688	0.002747	0.040131	-0.016479	0.20218	0.005951	-0.000763	-0.12634	0.16083	-0.042114	0.10239	0.18845	-0.15686	-0.018005	0.036163	-0.48569	0.31769	0.021515	0.10651	-0.066223	0.13809	-0.076447	-0.057983	-0.007324	-0.46081	-0.003204	-0.14191	-0.092316	-0.00351	0.005035
21.31	0.003357	-0.072784	0.14587	-0.000458	0.031891	-0.005798	0.1712	0.013275	0.016327	-0.06424	0.30228	-0.042419	-0.079193	0.19531	0.037384	-0.025635	0.027618	-0.47318	0.10559	0.001068	0.070648	-0.055847	0.12573	-0.13794	-0.056915	-0.000458	-0.44891	0.006256	-0.058289	-0.086517	-0.003204	0.002136
21.311	-0.005341	-0.087738	0.13245	0.007782	0.050507	-0.029449	0.13718	0.016785	0.019379	-0.009003	0.28793	-0.039825	-0.17349	0.20371	0.079651	-0.021057	0.031128	-0.37033	0.7811	-0.0383	0.052795	-0.053406	0.12573	-0.09964	-0.048676	-0.013428	-0.47363	-0.003815	0.074463	0.004578	-0.003204	-0.001526
21.312	0.007477	-0.087128	0.044708	0.032654	0.034485	-0.030365	0.15152	0.005951	0.006714	-0.005493	0.19836	-0.040588	-0.17288	0.14862	0.13596	-0.026245	0.025787	-0.35141	1.0245	0.031128	0.036011	-0.035248	0.091858	-0.11108	-0.041962	-0.00824	-0.53909	0.000153	0.24918	0.027161	-0.000916	-0.006104
21.313	0.009613	-0.093994	-0.009155	0.014954	0.059509	-0.003357	0.13748	0.011139	0.039825	-0.060577	-0.016632	-0.03006	-0.10773	0.053253	0.050354	-0.028229	0.002594	-0.35843	0.056915	0.036163	0.044708	-0.029449	0.14038	-0.11551	-0.036163	0.00351	-0.45578	-0.003815	0.44983	-0.097809	-0.00412	-0.007477
21.314	0.000458	-0.051575	0.11368	-0.016174	0.044556	0.016937	0.12299	0.014496	0.092926	-0.08667	-0.4277	-0.028076	0.045929	-0.079651	-0.17197	-0.013885	-0.020599	-0.41565	0.15915	0.006866	0.045013	-0.025024	0.097351	-0.11215	-0.050812	0.006561	0.076599	0.011444	0.39154	-0.1384	0.003357	-0.003815
21.315	0.006104	-0.072937	0.14206	-0.006561	0.025024	-0.007629	0.18707	0.007477	0.056	-0.018921	-0.37048	-0.024109	0.11505	-0.11246	0.02655	-0.015106	-0.029755	-0.42679	0.58502	-0.093079	0.058594	0.014191	0.18585	-0.080414	-0.059814	-0.005341	0.47028	0.000153	0.18738	-0.10849	-0.002747	0.003357
21.316	-0.00473	-0.060425	0.077362	0.001221	0.015259	0.000458	0.25467	0.014954	-0.046387	0.039215	-0.20447	-0.039063	-0.078125	-0.086365	-0.15289	-0.010071	-0.020447	-0.44311	0.4628	-0.10422	0.025024	0.035553	0.16678	-0.095673	-0.059204	-0.002899	0.43137	0.001678	-0.27756	-0.14862	-0.000916	0.007935
21.317	0.001831	-0.054169	0.036621	0.011139	0.015869	-0.006409	0.2652	0.007782	-0.027466	0.057373	-0.099792	-0.019836	0.023193	-0.05188	-0.2179	-0.021057	-0.002747	-0.37399	0.51193	-0.074005	-0.007935	0.065002	0.028381	-0.057373	-0.051727	-0.001831	0.4686	-0.002747	-0.80795	-0.036469	-0.002594	-0.003662
21.318	-0.005646	-0.041351	0.098877	0.007019	0.020599	-0.032501	0.24399	0.005951	-0.016632	0.022125	-0.048676	-0.014343	0.60684	0.066223	-0.21576	-0.012512	-0.014801	-0.37857	0.66666	-0.03891	-0.022888	0.023193	-0.052185	-0.069122	-0.048676	-0.00351	0.14771	0.007019	-0.74616	0.003662	-0.000458	0.00351
21.319	-0.003662	-0.013428	0.15884	0.00824	0.033417	-0.040894	0.19775	0.011292	0.001678	0.014191	-0.034027	-0.002594	0.84412	0.10468	-0.094147	-0.009003	-0.019226	-0.32059	0.58914	0.054626	0.009766	-0.015106	-0.099792	-0.11307	-0.046692	-0.001526	-1.0811	0.000763	0.06073	0.008392	-0.002594	0.001373
21.32	0.005493	-0.011444	0.12589	0.009613	0.050049	-0.001678	0.15549	0.012207	0.033264	0.020142	-0.020294	-0.017853	0.58105	0.043335	-0.071411	-0.010071	-0.007172	-0.327	0.57754	0.005951	0.00473	-0.001373	-0.023804	-0.12909	-0.041504	0.003815	-1.261	-0.000153	0.73425	-0.019836	-0.001831	0.008087
21.321	0.006866	-0.037537	-0.033875	-0.012665	0.033112	0.014343	0.10315	0.012054	0.065002	-0.002289	-0.014801	-0.007782	-0.40832	0.018311	-0.093994	-0.016174	-0.005951	-0.37003	0.48538	-0.08667	-0.049896	0.000763	-0.06134	-0.18967	-0.047913	0.000458	-0.38269	-0.00061	0.42023	-0.022125	-0.000916	0.008087
21.322	-0.001831	-0.002899	-0.042419	-0.017395	0.018311	0.024567	0.14572	0.007019	0.066071	0.031586	0	-0.013123	-0.62363	0.025024	-0.016174	-0.014191	0.00824	-0.34454	0.46997	-0.096436	-0.035248	-0.00061	-0.01709	-0.16678	-0.039368	-0.010071	0.36026	-0.007019	-0.25772	-0.031281	-0.003052	0.011444
21.323	0.000916	-0.007477	0.036926	-0.01709	0.01358	0.012512	0.15457	0.010376	0.053101	0.024872	-0.030823	0.002594	0.22781	-0.023804	0.078888	-0.009003	0.021667	-0.39688	0.48233	-0.093231	0.002441	0.005493	-0.03952	-0.14236	-0.037994	-0.006866	0.38193	-0.000763	-0.25497	-0.051117	-0.001984	0.002441
21.324	0.002136	-0.019684	0.014648	0.013885	0.009918	0.004425	0.15747	0.006561	0.098724	-0.006409	-0.10971	-0.007629	-0.30685	-0.033417	0.090179	0.000305	0.049133	-0.35828	0.53986	-0.062256	0.22217	0.01709	-0.023041	-0.16632	-0.038757	-0.003052	0.13306	0.001984	0.064392	-0.025482	0	-0.004883
21.325	-0.000305	-0.00351	0.000153	0.031738	0.008698	0.035858	0.13321	0.004272	0.19928	-0.03067	-0.065918	0.002136	-0.47134	0.14694	0.11505	-0.004578	0.028076	-0.34988	0.38681	-0.036163	0.068512	0.075378	-0.011292	-0.098877	-0.026703	-0.001831	0.036774	-0.002899	0.3067	-0.003967	-0.001221	-0.002747
21.326	-0.001831	-0.015259	0.034485	0.04715	0.00824	0.016937	0.15228	0.008392	0.22385	-0.084381	-0.10269	0.005188	-0.47226	0.11063	0.1535	-0.011597	0.010986	-0.35324	0.47806	0.012817	0.022125	0.031738	0.08316	-0.032959	-0.00473	-0.006714	-0.80292	-0.00824	-0.17273	-0.009308	-0.003052	0.00061
21.327	-0.00412	-0.011444	-0.02243	0.022888	-0.005035	0.004272	0.15366	0.016632	0.17136	-0.028229	-0.096436	0.009766	-0.47119	-0.00885	0.085297	-0.013275	0.025482	-0.36591	0.62454	0.12146	0.02655	0.029144	0.18631	0.066986	-0.028229	-0.012817	-0.7692	-0.00061	-0.2684	-0.041504	-0.003357	-0.013123
21.328	0.007935	-0.01297	-0.040894	-0.005798	0.00061	-0.041351	0.17624	0.007019	-0.051575	-0.011749	-0.08728	0.010529	0.16113	-0.00473	0.071716	-0.009003	0.019073	-0.33707	0.59753	0.12329	0.040283	0.029602	0.21881	0.099792	-0.013733	-0.014496	-0.10864	-0.001678	-0.32532	-0.020905	-0.003662	-0.007782
21.329	-0.000305	0.018005	0.005035	-0.002136	0.027313	-0.066528	0.19745	0.01297	-0.17899	-0.003204	0.14221	0.011444	0.13107	0.039215	0.066528	-0.009308	0.019379	-0.34958	0.51117	0.12466	0.014496	-0.016327	0.28091	0.10498	-0.00946	-0.007324	0.51041	0.000153	-0.16846	-0.11063	-0.003662	-0.013123
21.33	0.00412	0.041351	0.059967	0.014038	0.03418	-0.048828	0.1973	0.016632	-0.24475	0.079956	0.10773	0.013123	-0.17685	-0.05127	0.39734	-0.025482	0.024414	-0.32379	0.50491	0.05188	-0.033569	-0.013733	0.27344	-0.028076	-0.03418	0.009766	0.15396	0.001221	0.095825	-0.16953	-0.001831	0.008087
21.331	0.000458	0.039063	-0.036469	0.022888	0.054932	-0.062866	0.14358	0.033112	-0.14023	0.066223	0.004883	0.010834	0.33997	0.014954	-0.073547	-0.005798	0.016632	-0.31952	0.80276	0.056915	-0.070496	-0.000458	0.22049	-0.051575	-0.04837	0.010376	-0.44342	-0.000153	0.80658	-0.088959	-0.004272	0.003967
21.332	0.007019	0.03952	-0.079346	0.021515	0.081329	-0.007324	0.1886	0.036469	-0.13947	0.019226	0.069885	0.02121	0.5658	-0.008698	0.049896	-0.007782	0.010681	-0.26016	0.64407	0.053253	-0.13199	-0.006409	0.19623	-0.05249	-0.055389	0.00412	-0.6247	-0.004425	0.91065	0.019531	-0.001831	0.003815
